<svg xmlns="http://www.w3.org/2000/svg" width="81.958" height="91.726" viewBox="0 0 81.958 91.726"><g transform="translate(1.022 1)"><path d="M75.7,55.811,56.8,44.863,75.7,33.915A8.443,8.443,0,0,0,67.242,19.3L48.4,30.217V8.443a8.442,8.442,0,1,0-16.885,0V30.217L12.672,19.3A8.443,8.443,0,0,0,4.209,33.915l18.9,10.948L4.209,55.811a8.443,8.443,0,0,0,8.463,14.611L31.514,59.509V81.284a8.442,8.442,0,0,0,16.885,0V59.509L67.242,70.422a8.393,8.393,0,0,0,4.217,1.141,8.487,8.487,0,0,0,2.188-.288A8.443,8.443,0,0,0,75.7,55.811M47.13,81.284a7.174,7.174,0,0,1-14.347,0V50.465l5.908,3.422.633.367.633.367,7.174,4.155ZM2.233,66.712a7.182,7.182,0,0,1,2.612-9.8L24.377,45.6l7.137,4.133v8.313L12.036,69.324a7.182,7.182,0,0,1-9.8-2.612m30.55-58.27a7.174,7.174,0,1,1,14.347,0V39.262L41.222,35.84l-.633-.367-.633-.367-7.174-4.155Zm38.678,10.99a7.213,7.213,0,0,1,1.859.245,7.174,7.174,0,0,1,1.748,13.14L55.536,44.13,48.4,40V31.683L67.878,20.4a7.132,7.132,0,0,1,3.584-.969" transform="translate(0)" fill="#4d4d4d" stroke="#4b4b4b" stroke-width="2"/></g></svg>