<svg xmlns="http://www.w3.org/2000/svg" width="84.47" height="84.479" viewBox="0 0 84.47 84.479"><path d="M197.721,152.47c3.407,0,6.288,1.89,6.288,4.118h4.762c0-4.243-3.72-7.8-8.669-8.674V145.1H195.34v2.82c-4.941.881-8.652,4.433-8.652,8.671,0,4.9,4.949,8.881,11.042,8.881,3.407,0,6.288,1.89,6.288,4.118s-2.881,4.118-6.288,4.118-6.288-1.89-6.288-4.118h-4.763c0,4.241,3.71,7.8,8.661,8.672v2.827H200.1v-2.827c4.95-.877,8.661-4.432,8.661-8.672,0-4.9-4.949-8.881-11.042-8.881-3.407,0-6.288-1.89-6.288-4.118s2.881-4.118,6.288-4.118" transform="translate(-155.486 -120.853)" fill="currentColor"/><path d="M261.353,15.228a26.938,26.938,0,0,1,17.38,9.313,2.378,2.378,0,0,0,3.135.424l8.7-5.83a2.394,2.394,0,0,0,1.026-1.619,2.419,2.419,0,0,0-.5-1.847A42.39,42.39,0,0,0,261.835.009a2.382,2.382,0,0,0-2.584,2.373V12.864a2.388,2.388,0,0,0,2.1,2.364m2.661-10.16a37.644,37.644,0,0,1,21.668,11.618l-4.762,3.195a31.645,31.645,0,0,0-16.906-9.059Z" transform="translate(-215.931 0)" fill="currentColor"/><path d="M373.229,124.188a2.378,2.378,0,0,0-3.415-.83l-8.7,5.839a2.378,2.378,0,0,0-.8,3.059,26.822,26.822,0,0,1,2.974,12.313,27.144,27.144,0,0,1-9.5,20.618,2.376,2.376,0,0,0-.432,3.127l5.822,8.711a2.375,2.375,0,0,0,1.619,1.034,2.736,2.736,0,0,0,.364.025,2.388,2.388,0,0,0,1.491-.526,42.364,42.364,0,0,0,10.576-53.37m-11.584,47.955-3.186-4.779a31.884,31.884,0,0,0,9.593-22.8,31.464,31.464,0,0,0-2.585-12.559l4.771-3.195a37.629,37.629,0,0,1-8.593,43.328" transform="translate(-293.979 -102.408)" fill="currentColor"/><path d="M57.582,67.116a2.391,2.391,0,0,0-3.068-.8,26.711,26.711,0,0,1-12.279,2.974,27.13,27.13,0,0,1-3.186-54.065,2.388,2.388,0,0,0,2.1-2.364V2.382A2.382,2.382,0,0,0,38.566.009,42.313,42.313,0,1,0,62.573,79.242a2.384,2.384,0,0,0,.83-3.407Zm-15.355,12.6A37.559,37.559,0,0,1,36.379,5.069v5.753a31.9,31.9,0,0,0,5.847,63.242,31.312,31.312,0,0,0,12.525-2.593l3.195,4.788a37.456,37.456,0,0,1-15.72,3.457" transform="translate(0 0)" fill="currentColor"/></svg>