<svg xmlns="http://www.w3.org/2000/svg" width="62.13" height="72.485" viewBox="0 0 62.13 72.485"><path d="M55.207,2.25a11.443,11.443,0,0,0-8.591,18.979,11.307,11.307,0,0,0,6.181,3.64v6.973L35.565,40.806,18.35,31.843V24.869a11.43,11.43,0,1,0-11.018-3.64,11.307,11.307,0,0,0,6.181,3.64v9.287a1.132,1.132,0,0,0,.631,1.019l19.011,9.837v7.1a11.426,11.426,0,1,0,11,3.64,11.307,11.307,0,0,0-6.181-3.64v-7.1l19.011-9.837a1.132,1.132,0,0,0,.631-1.019V24.869A11.44,11.44,0,0,0,55.207,2.25ZM9.322,13.689a6.6,6.6,0,1,1,6.6,6.6A6.608,6.608,0,0,1,9.322,13.689ZM42.167,63.3a6.6,6.6,0,1,1-6.6-6.6A6.608,6.608,0,0,1,42.167,63.3Zm13.041-42.99a6.6,6.6,0,1,1,6.6-6.6A6.608,6.608,0,0,1,55.207,20.307Z" transform="translate(-4.5 -2.25)" fill="#4b4b4b"/></svg>