<svg xmlns="http://www.w3.org/2000/svg" width="73.342" height="77.576" viewBox="0 0 73.342 77.576"><path d="M64.619,15.856,53.976,39.481h-3.1L62.23,14.33H44.7V72.924c3.611.133,22.04,6.113,22.04,6.113v2.877H17.208V78.842s18.838-5.921,21.676-5.921V14.33H21.916L33.27,39.481h-3.1L19.53,15.856,8.886,39.481h-3.1L17.208,14.189V11.272H36.261c0-3.817,2.559-6.934,5.543-6.934,3.157,0,5.543,3.295,5.543,6.934h19.4v2.5L78.36,39.481h-3.1L64.62,15.856ZM33.465,42.362c0,7.6-5.27,14.9-13.933,14.9-8.468,0-13.933-7.3-13.933-14.9C5.6,42.373,33.465,42.373,33.465,42.362Zm17.608,0c0,.014,27.868.014,27.868,0,0,7.6-5.27,14.9-13.933,14.9C56.537,57.262,51.073,49.958,51.073,42.362Z" transform="translate(-5.6 -4.338)" fill="#4b4b4b"/></svg>