<svg xmlns="http://www.w3.org/2000/svg" width="97.021" height="96.804" viewBox="0 0 97.021 96.804"><path d="M72.606,0A24.142,24.142,0,0,0,50.088,33.113L37.736,40.4A21.659,21.659,0,0,0,0,54.777,21.377,21.377,0,0,0,8.721,72.12l.534.408a21.676,21.676,0,0,0,24.839,0,3.281,3.281,0,0,0,.534-.437,19.771,19.771,0,0,0,4.3-4.234l10.594,6.457a16.629,16.629,0,1,0,2.554-4.438L41.484,63.41a21.283,21.283,0,0,0-.709-18.926l11.759-6.962a24.619,24.619,0,0,0,4.583,5.1A24.2,24.2,0,1,0,72.606,0M31.463,68.1a1.594,1.594,0,0,1-.359.252,16.794,16.794,0,0,1-18.906,0l-.485-.33A13.123,13.123,0,0,1,10.187,66.8a11.436,11.436,0,0,1,7.079-9.914,6.305,6.305,0,0,1-1.991-4.661,6.37,6.37,0,1,1,12.74,0,6.263,6.263,0,0,1-2.039,4.661,11.479,11.479,0,0,1,3.768,2.544A11.36,11.36,0,0,1,33.1,66.77a14.637,14.637,0,0,1-1.641,1.33M58.594,87.89a6.374,6.374,0,0,1,6.37-6.37,3.826,3.826,0,1,1,3.826-3.826,3.827,3.827,0,0,1-3.826,3.826,6.351,6.351,0,0,1,6.37,6.322v1.913a10.881,10.881,0,0,1-1.175.689,11.284,11.284,0,0,1-10.419,0c-.408-.2-.767-.456-1.146-.689Zm26.3-49.067a19.063,19.063,0,0,1-24.587,0l-1.02-.942a13.992,13.992,0,0,1,8.283-8.895,8.819,8.819,0,0,1-3.875-7.341,8.914,8.914,0,0,1,17.828,0,8.816,8.816,0,0,1-3.874,7.312,13.779,13.779,0,0,1,8.283,8.866,10.131,10.131,0,0,1-1.039,1" transform="translate(-0.001 0)" fill="#4b4b4b"/></svg>