<svg xmlns="http://www.w3.org/2000/svg" width="82.027" height="96.598" viewBox="0 0 82.027 96.598"><path d="M122.481,177.784a2.675,2.675,0,0,0,.67-5.263A17.142,17.142,0,0,1,118.3,170.4l-.058-.029a17.126,17.126,0,1,1,18.439.01.292.292,0,0,0-.068.048,16.926,16.926,0,0,1-2.194,1.175,2.678,2.678,0,1,0,2.175,4.894c.476-.214.951-.447,1.408-.689A20.6,20.6,0,0,1,146.174,185a2.677,2.677,0,0,0,2.437,1.583,2.754,2.754,0,0,0,1.1-.233,2.663,2.663,0,0,0,1.34-3.535,25.936,25.936,0,0,0-8.389-10.312,22.454,22.454,0,1,0-30.412.01,26.088,26.088,0,0,0-7.914,9.331,2.666,2.666,0,0,0,1.194,3.583,2.63,2.63,0,0,0,1.194.282,2.7,2.7,0,0,0,2.4-1.476,20.682,20.682,0,0,1,7.826-8.438,22.316,22.316,0,0,0,4.865,1.9,2.7,2.7,0,0,0,.67.087" transform="translate(-86.664 -111.19)" fill="#4b4b4b"/><path d="M198.761,282.272a11.559,11.559,0,0,0,6.836,2.253,11.091,11.091,0,0,0,6.574-2.185,2.672,2.672,0,0,0-3.117-4.34,5.876,5.876,0,0,1-7,.058,2.674,2.674,0,0,0-3.292,4.214" transform="translate(-164.701 -231.127)" fill="#4b4b4b"/><path d="M199.6,227.111a3.025,3.025,0,1,0-3.02,3.02,3.017,3.017,0,0,0,3.02-3.02" transform="translate(-161.208 -186.646)" fill="#4b4b4b"/><path d="M264.8,227.111a3.025,3.025,0,1,0-3.02,3.02,3.023,3.023,0,0,0,3.02-3.02" transform="translate(-215.514 -186.646)" fill="#4b4b4b"/><path d="M27.748,80.615A35.648,35.648,0,0,1,39.187,11.907L36.7,14.568a2.672,2.672,0,0,0,3.9,3.651l6.632-7.088a2.671,2.671,0,0,0-.126-3.777L40.022.721a2.672,2.672,0,0,0-3.651,3.9L38.478,6.6A40.955,40.955,0,0,0,.153,44.009,40.8,40.8,0,0,0,25.758,85.577a2.765,2.765,0,0,0,.991.194,2.674,2.674,0,0,0,1-5.156" transform="translate(0 0)" fill="#4b4b4b"/><path d="M224.929,54.488A2.671,2.671,0,0,0,223,59.469a35.646,35.646,0,0,1-10.234,68.776l3.02-2.544a2.674,2.674,0,1,0-3.447-4.088l-8.409,7.088a2.676,2.676,0,0,0-.32,3.767l7.088,8.409a2.676,2.676,0,0,0,2.049.952,2.633,2.633,0,0,0,1.719-.631,2.676,2.676,0,0,0,.32-3.768l-3.175-3.768a40.989,40.989,0,0,0,13.322-79.175" transform="translate(-169.061 -45.232)" fill="#4b4b4b"/></svg>