<svg xmlns="http://www.w3.org/2000/svg" width="95.101" height="88.641" viewBox="0 0 95.101 88.641"><path d="M79.268,58.149l-2.15-8.055-1.2-4.513a12.924,12.924,0,0,0,4.69-4.928,13.443,13.443,0,0,0,1.156-9.727c-.014-.053-.033-.1-.049-.156a13.467,13.467,0,0,0-5.8-7.7,12.9,12.9,0,0,0-6.5-1.94q-.418-1.567-.834-3.134c-.745-2.809-1.5-5.637-2.255-8.447-.43-1.624-.87-3.268-1.309-4.892-.057-.21-.115-.43-.172-.64A2.748,2.748,0,0,0,64.69,3.6,5.544,5.544,0,0,0,59.967.025,5.254,5.254,0,0,0,55.6,1.793c-.335.392-.64.793-.965,1.185-1.825,2.236-3.65,4.491-5.475,6.736q-3.583,4.414-7.176,8.829c-1.777,2.2-3.564,4.386-5.36,6.593-.14.168-.28.341-.419.514q-2.494.666-4.989,1.33c-4.118,1.1-8.227,2.2-12.355,3.287q-5.446,1.447-10.893,2.9l-2.475.659A7.271,7.271,0,0,0,.019,41.122a19.65,19.65,0,0,0,.8,3.7c.5,1.863.994,3.736,1.491,5.59q1.4,5.245,2.8,10.5a9.656,9.656,0,0,0,.745,2.016,7.158,7.158,0,0,0,5.36,3.669,9.671,9.671,0,0,0,3.879-.439l1.992-.531c.365.81.731,1.618,1.094,2.432l4.1,9.116c1.118,2.475,2.226,4.959,3.344,7.434a9.647,9.647,0,0,0,.755,1.548,5.688,5.688,0,0,0,5.8,2.389c.325-.057.64-.162.965-.248,2.741-.735,5.472-1.461,8.213-2.187.081-.017.162-.034.243-.058a5.629,5.629,0,0,0,3.43-2.7,5.54,5.54,0,0,0,.411-4.338c-.172-.506-.43-1.022-.65-1.51l-2.035-4.529Q39.914,66.635,37.07,60.3l.118-.032q3.863-1.034,7.727-2.059c.9.336,1.773.681,2.669,1.027,3.134,1.213,6.287,2.417,9.421,3.631l10.348,3.984q3.01,1.161,6.02,2.312a5.453,5.453,0,0,0,6.583-2.379,5.772,5.772,0,0,0,.44-4.4c-.373-1.414-.755-2.828-1.128-4.242M59.05,5.73h0l-.01-.011.01.01M71.4,27.525c.111.037.215.077.32.117.282.144.563.273.836.428a8.459,8.459,0,0,1,.762.483l-.113-.1c.115.105.239.2.363.3a9.662,9.662,0,0,1,1.053,1.067,11.3,11.3,0,0,1,.994,1.678,9.977,9.977,0,0,1,.323,1,9.48,9.48,0,0,1,.207.993,11.192,11.192,0,0,1-.015,1.911,10.532,10.532,0,0,1-.373,1.434c-.01.03-.023.057-.034.087a1.782,1.782,0,0,1-.072.19l-.007.014c-.027.068-.052.139-.079.206l.042-.131c-.129.267-.26.533-.415.791s-.325.526-.5.774l-.021.033c-.053.065-.109.129-.16.2-.09.1-.183.2-.277.3q-1.428-5.356-2.848-10.7l-.308-1.156c.106.031.212.061.317.1M39.529,80.368q-3.784,1.006-7.568,2.022c-.23.06-.46.127-.69.191-.333-.628-.579-1.327-.858-1.959-.784-1.729-1.558-3.469-2.341-5.2q-2.542-5.663-5.093-11.343l8.234-2.2q1.171,2.608,2.344,5.216,2.594,5.762,5.179,11.514c.26.581.53,1.166.793,1.753M33.395,55.053l-1.116.3c-.058.011-.116.022-.174.038L19.826,58.661l-.12.032-1.7.449c-.018,0-.034.012-.051.017l-1.7.451c-.917.248-1.854.5-2.771.736-.381.1-.762.216-1.147.3q-.118,0-.237,0c-.111-.028-.221-.058-.332-.087-.041-.021-.082-.04-.119-.064L11.5,60.4l-.189-.2c-.067-.106-.13-.216-.19-.326-.194-.591-.327-1.207-.488-1.805l-1.2-4.529Q8.069,48.426,6.7,43.29c-.206-.765-.467-1.551-.622-2.341q0-.133,0-.266c.028-.111.058-.221.087-.332.021-.041.04-.082.064-.119s.06-.1.09-.146l.2-.189c.115-.072.234-.14.355-.2.993-.336,2.056-.543,3.047-.808,2.5-.669,5.007-1.338,7.491-2q8.628-2.293,17.247-4.6l1.1-.293q.816,3.064,1.631,6.131l3.742,14.047q.1.379.2.758l-7.932,2.118m39.051,7.338c-2.341-.908-4.672-1.8-7.013-2.7Q57.464,56.62,49.5,53.562c-.644-.253-1.29-.5-1.938-.75q-1.009-3.791-2.018-7.582-1.92-7.224-3.841-14.419-.247-.917-.489-1.834L46.887,22q5.346-6.579,10.7-13.148c.583-.707,1.147-1.414,1.729-2.121h0q.631,2.364,1.261,4.721,1.78,6.67,3.559,13.349c.015.083.031.165.053.248l1.777,6.679c.936,3.526,1.882,7.071,2.828,10.6.22.812.44,1.634.65,2.456a2.612,2.612,0,0,0,.1.3Q71.159,51.14,72.781,57.2c.526,1.981,1.061,3.95,1.579,5.927-.634-.248-1.281-.49-1.913-.739M74.6,64.11a.086.086,0,0,0,0,.02.042.042,0,0,1,0-.02" transform="translate(0 0)" fill="#4b4b4b"/><path d="M452.514,220.587l.037-.075c.027-.067.054-.135.078-.2.053-.167.056-.248-.115.279" transform="translate(-376.901 -183.391)" fill="#4b4b4b"/><path d="M438.833,170.884l-.021-.014c.569.505.219.158.021.014" transform="translate(-365.489 -142.318)" fill="#4b4b4b"/><path d="M507.433,278.287c-.26.318-.307.382-.268.336l.257-.321.011-.015" transform="translate(-422.41 -231.786)" fill="#4b4b4b"/><path d="M432.042,56.059a26.224,26.224,0,0,0-11.829-5.293,3.269,3.269,0,0,0-2.322.306,3.018,3.018,0,0,0-1.376,1.8c-.287,1.471.487,3.459,2.14,3.726a23.733,23.733,0,0,1,4.233,1.089c.315.115.611.239.917.354l-.179-.067c.043.017.083.034.113.048.172.076.344.162.506.239.631.3,1.261.631,1.863.984s1.194.745,1.758,1.147c.153.105.3.22.449.334l-.242-.177c.068.051.14.1.184.139.248.2.506.42.755.64a23.1,23.1,0,0,1,2.816,2.974,23.542,23.542,0,0,1,2.539,4.36,24.089,24.089,0,0,1,1.47,5.538,23.432,23.432,0,0,1-.034,4.985,24.487,24.487,0,0,1-.971,4.023c-.105.306-.22.621-.334.927-.086.22-.392.879.038-.057-.077.172-.143.344-.229.516-.287.64-.611,1.261-.955,1.873a20.721,20.721,0,0,1-1.128,1.787c-.105.153-.22.306-.325.459l-.007.01.055-.067-.066.082c-.076.1-.214.272-.257.321-.1.121-.194.244-.289.361a23.109,23.109,0,0,1-3.134,3.058,3.01,3.01,0,0,0,2.1,5.131,3.438,3.438,0,0,0,2.159-.889,26.125,26.125,0,0,0-.42-40.657" transform="translate(-346.869 -42.218)" fill="#4b4b4b"/><path d="M457.786,93.676c-.236-.1-.574-.214,0,0" transform="translate(-381.029 -77.924)" fill="#4b4b4b"/><path d="M485.07,109.008c-.166-.123-.312-.229,0,0" transform="translate(-403.864 -90.681)" fill="#4b4b4b"/></svg>