<svg xmlns="http://www.w3.org/2000/svg" width="109.841" height="73.941" viewBox="0 0 109.841 73.941"><path d="M108.083,18.716,54.774.146a2.623,2.623,0,0,0-1.716,0L5.647,16.5a2.62,2.62,0,0,0,.009,4.957l12.086,4.122A30.946,30.946,0,0,0,11.1,40.856a5.435,5.435,0,0,0-3.51,5,5.492,5.492,0,0,0,4.273,5.249c-.931,2.328-2.27,5.487-3.767,8.426,0,0-2.915,4.2-4.839,3.382s-4.907,2-2.126,4.762c0,0,6.249,7.736,12.5,6.012C19.2,72.154,19.975,57.1,17.181,49.879a5.289,5.289,0,0,0,1.883-4.02,5.367,5.367,0,0,0-2.715-4.614c1.7-9.82,7.289-16.522,16.642-19.932a41.164,41.164,0,0,1,15.254-2.277,2.621,2.621,0,0,0,.4-5.226,45.832,45.832,0,0,0-17.281,2.517,33.315,33.315,0,0,0-9.414,5.148L14.578,18.96,53.908,5.394,98.719,21,53.053,34.693l-21.7-7.814a2.621,2.621,0,0,0-1.776,4.931l22.516,8.106a2.621,2.621,0,0,0,1.64.045L107.973,23.7a2.62,2.62,0,0,0,.11-4.985" transform="translate(0 0)" fill="currentColor"/><path d="M146.352,140.615a2.621,2.621,0,0,0-2.62,2.62v6.1c0,7.636,0,13.154-29.338,13.154-12.757,0-20.25-1.027-23.581-3.233-2.317-1.534-2.42-3.66-2.42-7.941V143.86a2.62,2.62,0,0,0-5.241,0v7.456c0,4.5,0,9.154,4.768,12.311,4.345,2.877,12.263,4.1,26.474,4.1,14.393,0,23.039-1.321,28.033-4.283,5.753-3.412,6.546-8.8,6.546-14.112v-6.1a2.621,2.621,0,0,0-2.62-2.62" transform="translate(-61.361 -103.767)" fill="currentColor"/></svg>