<svg xmlns="http://www.w3.org/2000/svg" width="111.441" height="79.604" viewBox="0 0 111.441 79.604"><path d="M107.459,65.671h-3.982V1.986A1.983,1.983,0,0,0,101.491,0H9.951A1.983,1.983,0,0,0,7.965,1.986V65.671H3.982A3.985,3.985,0,0,0,0,69.654,9.945,9.945,0,0,0,9.951,79.6h91.54a9.945,9.945,0,0,0,9.951-9.951,3.985,3.985,0,0,0-3.982-3.982M11.936,3.982H99.494V59.7H45.77V56.156a5.931,5.931,0,0,0,1.986-4.418V41.788a9.95,9.95,0,0,0-6.548-9.315,9.952,9.952,0,1,0-14.77,0,9.95,9.95,0,0,0-6.548,9.315v9.951a6.012,6.012,0,0,0,1.986,4.418V59.7H11.925V3.982ZM25.869,57.718H41.788V59.7H25.869Zm7.954-25.88a5.968,5.968,0,1,1,5.968-5.968,5.968,5.968,0,0,1-5.968,5.968M29.852,35.82h7.965a5.968,5.968,0,0,1,5.968,5.968v9.951A1.983,1.983,0,0,1,41.8,53.724a4.907,4.907,0,0,0,.1-.993,5,5,0,0,0-1.986-3.982V41.788a1.986,1.986,0,0,0-3.971,0v5.968H31.86V41.788a1.986,1.986,0,0,0-3.971,0v7.965a1.983,1.983,0,0,0,1.986,1.986h6.961a.993.993,0,0,1,0,1.986H25.891a1.983,1.983,0,0,1-1.986-1.986V41.788a5.935,5.935,0,0,1,5.946-5.968M11.936,63.686H99.494v1.986H69.654a2,2,0,0,0-1.417.58l-3.38,3.4H46.584l-3.38-3.4a2.029,2.029,0,0,0-1.417-.58H11.936Zm89.555,11.936H9.951a5.968,5.968,0,0,1-5.968-5.968H40.973l3.38,3.4a2.029,2.029,0,0,0,1.417.58h19.9a2,2,0,0,0,1.417-.58l3.38-3.4h36.991a5.975,5.975,0,0,1-5.968,5.968" fill="#4b4b4b"/><path d="M276.782,91.31h3.982v5.968a2.006,2.006,0,0,0,3.4,1.417l7.362-7.385H312.6a1.983,1.983,0,0,0,1.986-1.986V65.441a1.983,1.983,0,0,0-1.986-1.986h-35.82a1.983,1.983,0,0,0-1.986,1.986V89.324a1.99,1.99,0,0,0,1.986,1.986m2-23.884h31.837v19.9h-19.9a2,2,0,0,0-1.417.58l-4.563,4.574V89.313a1.983,1.983,0,0,0-1.986-1.986h-3.971Z" transform="translate(-223.058 -51.508)" fill="#4b4b4b"/><path d="M319.086,109.73h11.936a1.986,1.986,0,1,0,0-3.971H319.086a1.986,1.986,0,0,0,0,3.971" transform="translate(-257.396 -85.847)" fill="#4b4b4b"/><path d="M319.086,151.974h19.9a1.986,1.986,0,0,0,0-3.971h-19.9a1.986,1.986,0,0,0,0,3.971" transform="translate(-257.396 -120.137)" fill="#4b4b4b"/></svg>